<mxfile host="Electron" modified="2024-07-18T15:16:51.201Z" agent="Mozilla/5.0 (Windows NT 10.0; Win64; x64) AppleWebKit/537.36 (KHTML, like Gecko) draw.io/24.6.4 Chrome/124.0.6367.207 Electron/30.0.6 Safari/537.36" etag="XIw2FmbTswHqzvf2Mmvg" version="24.6.4" type="device">
  <diagram name="第 1 页" id="KhSxuXFpFUOwYUNEZAaa">
    <mxGraphModel dx="792" dy="1351" grid="1" gridSize="10" guides="1" tooltips="1" connect="1" arrows="1" fold="1" page="1" pageScale="1" pageWidth="827" pageHeight="1169" math="0" shadow="0">
      <root>
        <mxCell id="0" />
        <mxCell id="1" parent="0" />
        <mxCell id="DrK9s9a58TpgXCn_6STr-8" style="edgeStyle=orthogonalEdgeStyle;rounded=0;orthogonalLoop=1;jettySize=auto;html=1;exitX=0.5;exitY=1;exitDx=0;exitDy=0;entryX=0.5;entryY=0;entryDx=0;entryDy=0;" parent="1" source="DrK9s9a58TpgXCn_6STr-1" target="DrK9s9a58TpgXCn_6STr-2" edge="1">
          <mxGeometry relative="1" as="geometry" />
        </mxCell>
        <mxCell id="DrK9s9a58TpgXCn_6STr-1" value="B&lt;span style=&quot;background-color: initial;&quot;&gt;egin&lt;/span&gt;" style="ellipse;whiteSpace=wrap;html=1;" parent="1" vertex="1">
          <mxGeometry x="310" width="60" height="40" as="geometry" />
        </mxCell>
        <mxCell id="DrK9s9a58TpgXCn_6STr-9" style="edgeStyle=orthogonalEdgeStyle;rounded=0;orthogonalLoop=1;jettySize=auto;html=1;exitX=1;exitY=0.5;exitDx=0;exitDy=0;entryX=0;entryY=0.5;entryDx=0;entryDy=0;" parent="1" source="DrK9s9a58TpgXCn_6STr-2" target="DrK9s9a58TpgXCn_6STr-5" edge="1">
          <mxGeometry relative="1" as="geometry" />
        </mxCell>
        <mxCell id="DrK9s9a58TpgXCn_6STr-15" value="repeat" style="edgeLabel;html=1;align=center;verticalAlign=middle;resizable=0;points=[];" parent="DrK9s9a58TpgXCn_6STr-9" vertex="1" connectable="0">
          <mxGeometry x="0.025" y="-2" relative="1" as="geometry">
            <mxPoint as="offset" />
          </mxGeometry>
        </mxCell>
        <mxCell id="DrK9s9a58TpgXCn_6STr-12" style="edgeStyle=orthogonalEdgeStyle;rounded=0;orthogonalLoop=1;jettySize=auto;html=1;exitX=0.5;exitY=1;exitDx=0;exitDy=0;entryX=0.5;entryY=0;entryDx=0;entryDy=0;" parent="1" source="DrK9s9a58TpgXCn_6STr-2" target="DrK9s9a58TpgXCn_6STr-3" edge="1">
          <mxGeometry relative="1" as="geometry" />
        </mxCell>
        <mxCell id="DrK9s9a58TpgXCn_6STr-14" value="none repeat" style="edgeLabel;html=1;align=center;verticalAlign=middle;resizable=0;points=[];" parent="DrK9s9a58TpgXCn_6STr-12" vertex="1" connectable="0">
          <mxGeometry x="-0.04" y="3" relative="1" as="geometry">
            <mxPoint as="offset" />
          </mxGeometry>
        </mxCell>
        <mxCell id="DrK9s9a58TpgXCn_6STr-2" value="index =&lt;span style=&quot;background-color: initial;&quot;&gt;&amp;nbsp;0&lt;/span&gt;" style="rounded=1;whiteSpace=wrap;html=1;" parent="1" vertex="1">
          <mxGeometry x="280" y="120" width="120" height="60" as="geometry" />
        </mxCell>
        <mxCell id="DrK9s9a58TpgXCn_6STr-21" style="edgeStyle=orthogonalEdgeStyle;rounded=0;orthogonalLoop=1;jettySize=auto;html=1;exitX=0.5;exitY=1;exitDx=0;exitDy=0;entryX=0.5;entryY=0;entryDx=0;entryDy=0;" parent="1" source="DrK9s9a58TpgXCn_6STr-3" target="DrK9s9a58TpgXCn_6STr-4" edge="1">
          <mxGeometry relative="1" as="geometry" />
        </mxCell>
        <mxCell id="DrK9s9a58TpgXCn_6STr-22" value="none repeat" style="edgeLabel;html=1;align=center;verticalAlign=middle;resizable=0;points=[];" parent="DrK9s9a58TpgXCn_6STr-21" vertex="1" connectable="0">
          <mxGeometry x="0.02" y="1" relative="1" as="geometry">
            <mxPoint as="offset" />
          </mxGeometry>
        </mxCell>
        <mxCell id="DrK9s9a58TpgXCn_6STr-3" value="index = 0" style="rounded=1;whiteSpace=wrap;html=1;" parent="1" vertex="1">
          <mxGeometry x="280" y="280" width="120" height="60" as="geometry" />
        </mxCell>
        <mxCell id="DrK9s9a58TpgXCn_6STr-29" style="edgeStyle=orthogonalEdgeStyle;rounded=0;orthogonalLoop=1;jettySize=auto;html=1;exitX=0.5;exitY=1;exitDx=0;exitDy=0;entryX=0.5;entryY=0;entryDx=0;entryDy=0;" parent="1" source="DrK9s9a58TpgXCn_6STr-4" target="DrK9s9a58TpgXCn_6STr-28" edge="1">
          <mxGeometry relative="1" as="geometry" />
        </mxCell>
        <mxCell id="DrK9s9a58TpgXCn_6STr-4" value="index = 0" style="rounded=1;whiteSpace=wrap;html=1;" parent="1" vertex="1">
          <mxGeometry x="280" y="440" width="120" height="60" as="geometry" />
        </mxCell>
        <mxCell id="DrK9s9a58TpgXCn_6STr-16" style="edgeStyle=orthogonalEdgeStyle;rounded=0;orthogonalLoop=1;jettySize=auto;html=1;exitX=0.5;exitY=1;exitDx=0;exitDy=0;entryX=0.5;entryY=0;entryDx=0;entryDy=0;" parent="1" source="DrK9s9a58TpgXCn_6STr-5" target="DrK9s9a58TpgXCn_6STr-6" edge="1">
          <mxGeometry relative="1" as="geometry" />
        </mxCell>
        <mxCell id="DrK9s9a58TpgXCn_6STr-17" value="repeat" style="edgeLabel;html=1;align=center;verticalAlign=middle;resizable=0;points=[];" parent="DrK9s9a58TpgXCn_6STr-16" vertex="1" connectable="0">
          <mxGeometry x="0.04" y="1" relative="1" as="geometry">
            <mxPoint as="offset" />
          </mxGeometry>
        </mxCell>
        <mxCell id="DrK9s9a58TpgXCn_6STr-19" style="rounded=0;orthogonalLoop=1;jettySize=auto;html=1;exitX=0.5;exitY=1;exitDx=0;exitDy=0;entryX=0.5;entryY=0;entryDx=0;entryDy=0;" parent="1" source="DrK9s9a58TpgXCn_6STr-5" target="DrK9s9a58TpgXCn_6STr-3" edge="1">
          <mxGeometry relative="1" as="geometry" />
        </mxCell>
        <mxCell id="DrK9s9a58TpgXCn_6STr-20" value="none repeat" style="edgeLabel;html=1;align=center;verticalAlign=middle;resizable=0;points=[];" parent="DrK9s9a58TpgXCn_6STr-19" vertex="1" connectable="0">
          <mxGeometry x="-0.048" relative="1" as="geometry">
            <mxPoint y="1" as="offset" />
          </mxGeometry>
        </mxCell>
        <mxCell id="DrK9s9a58TpgXCn_6STr-5" value="old&amp;nbsp; = 1&lt;div&gt;new&amp;nbsp; = 2&lt;/div&gt;" style="rounded=1;whiteSpace=wrap;html=1;" parent="1" vertex="1">
          <mxGeometry x="480" y="120" width="120" height="60" as="geometry" />
        </mxCell>
        <mxCell id="DrK9s9a58TpgXCn_6STr-23" style="rounded=0;orthogonalLoop=1;jettySize=auto;html=1;exitX=0.5;exitY=1;exitDx=0;exitDy=0;entryX=0.5;entryY=0;entryDx=0;entryDy=0;" parent="1" source="DrK9s9a58TpgXCn_6STr-6" target="DrK9s9a58TpgXCn_6STr-4" edge="1">
          <mxGeometry relative="1" as="geometry" />
        </mxCell>
        <mxCell id="DrK9s9a58TpgXCn_6STr-24" value="none repeat" style="edgeLabel;html=1;align=center;verticalAlign=middle;resizable=0;points=[];" parent="DrK9s9a58TpgXCn_6STr-23" vertex="1" connectable="0">
          <mxGeometry y="-2" relative="1" as="geometry">
            <mxPoint as="offset" />
          </mxGeometry>
        </mxCell>
        <mxCell id="DrK9s9a58TpgXCn_6STr-25" style="edgeStyle=orthogonalEdgeStyle;rounded=0;orthogonalLoop=1;jettySize=auto;html=1;exitX=0.5;exitY=1;exitDx=0;exitDy=0;entryX=0.5;entryY=0;entryDx=0;entryDy=0;" parent="1" source="DrK9s9a58TpgXCn_6STr-6" target="DrK9s9a58TpgXCn_6STr-7" edge="1">
          <mxGeometry relative="1" as="geometry" />
        </mxCell>
        <mxCell id="DrK9s9a58TpgXCn_6STr-26" value="repeat" style="edgeLabel;html=1;align=center;verticalAlign=middle;resizable=0;points=[];" parent="DrK9s9a58TpgXCn_6STr-25" vertex="1" connectable="0">
          <mxGeometry y="1" relative="1" as="geometry">
            <mxPoint as="offset" />
          </mxGeometry>
        </mxCell>
        <mxCell id="DrK9s9a58TpgXCn_6STr-6" value="new = 3" style="rounded=1;whiteSpace=wrap;html=1;" parent="1" vertex="1">
          <mxGeometry x="480" y="280" width="120" height="60" as="geometry" />
        </mxCell>
        <mxCell id="DrK9s9a58TpgXCn_6STr-31" style="edgeStyle=orthogonalEdgeStyle;rounded=0;orthogonalLoop=1;jettySize=auto;html=1;exitX=0.5;exitY=1;exitDx=0;exitDy=0;entryX=0.5;entryY=0;entryDx=0;entryDy=0;" parent="1" source="DrK9s9a58TpgXCn_6STr-7" target="DrK9s9a58TpgXCn_6STr-28" edge="1">
          <mxGeometry relative="1" as="geometry" />
        </mxCell>
        <mxCell id="DrK9s9a58TpgXCn_6STr-7" value="new = 4" style="rounded=1;whiteSpace=wrap;html=1;" parent="1" vertex="1">
          <mxGeometry x="480" y="440" width="120" height="60" as="geometry" />
        </mxCell>
        <mxCell id="DrK9s9a58TpgXCn_6STr-27" value="只有当index === 0时才需要修改old！" style="text;html=1;align=center;verticalAlign=middle;resizable=0;points=[];autosize=1;strokeColor=none;fillColor=none;" parent="1" vertex="1">
          <mxGeometry x="560" y="208" width="220" height="30" as="geometry" />
        </mxCell>
        <mxCell id="DrK9s9a58TpgXCn_6STr-28" value="End" style="ellipse;whiteSpace=wrap;html=1;" parent="1" vertex="1">
          <mxGeometry x="300" y="620" width="80" height="40" as="geometry" />
        </mxCell>
        <mxCell id="8XqOl44Nm7k2h-5CVDHm-1" style="edgeStyle=orthogonalEdgeStyle;rounded=0;orthogonalLoop=1;jettySize=auto;html=1;exitX=0.5;exitY=1;exitDx=0;exitDy=0;entryX=0.5;entryY=0;entryDx=0;entryDy=0;" edge="1" source="8XqOl44Nm7k2h-5CVDHm-2" target="8XqOl44Nm7k2h-5CVDHm-7" parent="1">
          <mxGeometry relative="1" as="geometry" />
        </mxCell>
        <mxCell id="8XqOl44Nm7k2h-5CVDHm-2" value="Congrate" style="ellipse;whiteSpace=wrap;html=1;" vertex="1" parent="1">
          <mxGeometry x="310" y="760" width="60" height="40" as="geometry" />
        </mxCell>
        <mxCell id="8XqOl44Nm7k2h-5CVDHm-3" style="edgeStyle=orthogonalEdgeStyle;rounded=0;orthogonalLoop=1;jettySize=auto;html=1;exitX=1;exitY=0.5;exitDx=0;exitDy=0;entryX=0;entryY=0.5;entryDx=0;entryDy=0;" edge="1" source="8XqOl44Nm7k2h-5CVDHm-12" target="8XqOl44Nm7k2h-5CVDHm-36" parent="1">
          <mxGeometry relative="1" as="geometry" />
        </mxCell>
        <mxCell id="8XqOl44Nm7k2h-5CVDHm-4" value="repeat" style="edgeLabel;html=1;align=center;verticalAlign=middle;resizable=0;points=[];" vertex="1" connectable="0" parent="8XqOl44Nm7k2h-5CVDHm-3">
          <mxGeometry x="0.025" y="-2" relative="1" as="geometry">
            <mxPoint as="offset" />
          </mxGeometry>
        </mxCell>
        <mxCell id="8XqOl44Nm7k2h-5CVDHm-5" style="edgeStyle=orthogonalEdgeStyle;rounded=0;orthogonalLoop=1;jettySize=auto;html=1;exitX=0.5;exitY=1;exitDx=0;exitDy=0;entryX=0.5;entryY=0;entryDx=0;entryDy=0;" edge="1" source="8XqOl44Nm7k2h-5CVDHm-7" target="8XqOl44Nm7k2h-5CVDHm-10" parent="1">
          <mxGeometry relative="1" as="geometry" />
        </mxCell>
        <mxCell id="8XqOl44Nm7k2h-5CVDHm-6" value="none repeat" style="edgeLabel;html=1;align=center;verticalAlign=middle;resizable=0;points=[];" vertex="1" connectable="0" parent="8XqOl44Nm7k2h-5CVDHm-5">
          <mxGeometry x="-0.04" y="3" relative="1" as="geometry">
            <mxPoint as="offset" />
          </mxGeometry>
        </mxCell>
        <mxCell id="8XqOl44Nm7k2h-5CVDHm-7" value="index =&lt;span style=&quot;background-color: initial;&quot;&gt;&amp;nbsp;0&lt;/span&gt;" style="rounded=1;whiteSpace=wrap;html=1;" vertex="1" parent="1">
          <mxGeometry x="280" y="880" width="120" height="60" as="geometry" />
        </mxCell>
        <mxCell id="8XqOl44Nm7k2h-5CVDHm-8" style="edgeStyle=orthogonalEdgeStyle;rounded=0;orthogonalLoop=1;jettySize=auto;html=1;exitX=0.5;exitY=1;exitDx=0;exitDy=0;entryX=0.5;entryY=0;entryDx=0;entryDy=0;" edge="1" source="8XqOl44Nm7k2h-5CVDHm-10" target="8XqOl44Nm7k2h-5CVDHm-12" parent="1">
          <mxGeometry relative="1" as="geometry" />
        </mxCell>
        <mxCell id="8XqOl44Nm7k2h-5CVDHm-9" value="none repeat" style="edgeLabel;html=1;align=center;verticalAlign=middle;resizable=0;points=[];" vertex="1" connectable="0" parent="8XqOl44Nm7k2h-5CVDHm-8">
          <mxGeometry x="0.02" y="1" relative="1" as="geometry">
            <mxPoint as="offset" />
          </mxGeometry>
        </mxCell>
        <mxCell id="8XqOl44Nm7k2h-5CVDHm-10" value="index = 0" style="rounded=1;whiteSpace=wrap;html=1;" vertex="1" parent="1">
          <mxGeometry x="280" y="1040" width="120" height="60" as="geometry" />
        </mxCell>
        <mxCell id="8XqOl44Nm7k2h-5CVDHm-12" value="index = 0" style="rounded=1;whiteSpace=wrap;html=1;" vertex="1" parent="1">
          <mxGeometry x="280" y="1200" width="120" height="60" as="geometry" />
        </mxCell>
        <mxCell id="8XqOl44Nm7k2h-5CVDHm-17" value="old&amp;nbsp; = 1&lt;div&gt;new&amp;nbsp; = 2&lt;/div&gt;" style="rounded=1;whiteSpace=wrap;html=1;" vertex="1" parent="1">
          <mxGeometry x="480" y="880" width="120" height="60" as="geometry" />
        </mxCell>
        <mxCell id="8XqOl44Nm7k2h-5CVDHm-26" value="none repeat" style="rounded=1;whiteSpace=wrap;html=1;" vertex="1" parent="1">
          <mxGeometry x="80" y="880" width="120" height="60" as="geometry" />
        </mxCell>
        <mxCell id="8XqOl44Nm7k2h-5CVDHm-27" value="none repeat" style="rounded=1;whiteSpace=wrap;html=1;" vertex="1" parent="1">
          <mxGeometry x="80" y="1040" width="120" height="60" as="geometry" />
        </mxCell>
        <mxCell id="8XqOl44Nm7k2h-5CVDHm-28" value="none repeat" style="rounded=1;whiteSpace=wrap;html=1;" vertex="1" parent="1">
          <mxGeometry x="80" y="1200" width="120" height="60" as="geometry" />
        </mxCell>
        <mxCell id="8XqOl44Nm7k2h-5CVDHm-29" value="repeat" style="rounded=1;whiteSpace=wrap;html=1;" vertex="1" parent="1">
          <mxGeometry x="80" y="1360" width="120" height="60" as="geometry" />
        </mxCell>
        <mxCell id="8XqOl44Nm7k2h-5CVDHm-30" value="repeat" style="rounded=1;whiteSpace=wrap;html=1;" vertex="1" parent="1">
          <mxGeometry x="80" y="1520" width="120" height="60" as="geometry" />
        </mxCell>
        <mxCell id="8XqOl44Nm7k2h-5CVDHm-32" value="repeat" style="rounded=1;whiteSpace=wrap;html=1;" vertex="1" parent="1">
          <mxGeometry x="80" y="1680" width="120" height="60" as="geometry" />
        </mxCell>
        <mxCell id="8XqOl44Nm7k2h-5CVDHm-33" value="none repeat" style="rounded=1;whiteSpace=wrap;html=1;" vertex="1" parent="1">
          <mxGeometry x="80" y="1840" width="120" height="60" as="geometry" />
        </mxCell>
        <mxCell id="8XqOl44Nm7k2h-5CVDHm-35" value="none repeat" style="rounded=1;whiteSpace=wrap;html=1;" vertex="1" parent="1">
          <mxGeometry x="80" y="2000" width="120" height="60" as="geometry" />
        </mxCell>
        <mxCell id="8XqOl44Nm7k2h-5CVDHm-47" style="edgeStyle=orthogonalEdgeStyle;rounded=0;orthogonalLoop=1;jettySize=auto;html=1;exitX=0.5;exitY=1;exitDx=0;exitDy=0;entryX=0.5;entryY=0;entryDx=0;entryDy=0;" edge="1" parent="1" source="8XqOl44Nm7k2h-5CVDHm-36" target="8XqOl44Nm7k2h-5CVDHm-46">
          <mxGeometry relative="1" as="geometry" />
        </mxCell>
        <mxCell id="8XqOl44Nm7k2h-5CVDHm-36" value="old = 1&lt;div&gt;new = 2&lt;/div&gt;" style="rounded=1;whiteSpace=wrap;html=1;" vertex="1" parent="1">
          <mxGeometry x="480" y="1360" width="120" height="60" as="geometry" />
        </mxCell>
        <mxCell id="8XqOl44Nm7k2h-5CVDHm-37" value="index = 0&lt;div&gt;0&lt;/div&gt;" style="rounded=1;whiteSpace=wrap;html=1;" vertex="1" parent="1">
          <mxGeometry x="680" y="880" width="120" height="60" as="geometry" />
        </mxCell>
        <mxCell id="8XqOl44Nm7k2h-5CVDHm-38" value="0&lt;div&gt;0&lt;/div&gt;" style="rounded=1;whiteSpace=wrap;html=1;" vertex="1" parent="1">
          <mxGeometry x="680" y="1040" width="120" height="60" as="geometry" />
        </mxCell>
        <mxCell id="8XqOl44Nm7k2h-5CVDHm-39" value="0&lt;div&gt;0&lt;/div&gt;" style="rounded=1;whiteSpace=wrap;html=1;" vertex="1" parent="1">
          <mxGeometry x="680" y="1200" width="120" height="60" as="geometry" />
        </mxCell>
        <mxCell id="8XqOl44Nm7k2h-5CVDHm-40" value="0&lt;div&gt;1&lt;/div&gt;&lt;div&gt;2&lt;/div&gt;" style="rounded=1;whiteSpace=wrap;html=1;" vertex="1" parent="1">
          <mxGeometry x="680" y="1360" width="120" height="60" as="geometry" />
        </mxCell>
        <mxCell id="8XqOl44Nm7k2h-5CVDHm-41" value="&lt;div&gt;2&lt;/div&gt;3" style="rounded=1;whiteSpace=wrap;html=1;" vertex="1" parent="1">
          <mxGeometry x="680" y="1520" width="120" height="60" as="geometry" />
        </mxCell>
        <mxCell id="8XqOl44Nm7k2h-5CVDHm-42" value="3&lt;div&gt;4&lt;/div&gt;" style="rounded=1;whiteSpace=wrap;html=1;" vertex="1" parent="1">
          <mxGeometry x="680" y="1680" width="120" height="60" as="geometry" />
        </mxCell>
        <mxCell id="8XqOl44Nm7k2h-5CVDHm-43" value="4&lt;div&gt;0&lt;/div&gt;" style="rounded=1;whiteSpace=wrap;html=1;" vertex="1" parent="1">
          <mxGeometry x="680" y="1840" width="120" height="60" as="geometry" />
        </mxCell>
        <mxCell id="8XqOl44Nm7k2h-5CVDHm-44" value="none repeat" style="rounded=1;whiteSpace=wrap;html=1;" vertex="1" parent="1">
          <mxGeometry x="680" y="2000" width="120" height="60" as="geometry" />
        </mxCell>
        <mxCell id="8XqOl44Nm7k2h-5CVDHm-49" style="edgeStyle=orthogonalEdgeStyle;rounded=0;orthogonalLoop=1;jettySize=auto;html=1;exitX=0.5;exitY=1;exitDx=0;exitDy=0;entryX=0.5;entryY=0;entryDx=0;entryDy=0;" edge="1" parent="1" source="8XqOl44Nm7k2h-5CVDHm-46" target="8XqOl44Nm7k2h-5CVDHm-48">
          <mxGeometry relative="1" as="geometry" />
        </mxCell>
        <mxCell id="8XqOl44Nm7k2h-5CVDHm-46" value="new = 3" style="rounded=1;whiteSpace=wrap;html=1;" vertex="1" parent="1">
          <mxGeometry x="480" y="1520" width="120" height="60" as="geometry" />
        </mxCell>
        <mxCell id="8XqOl44Nm7k2h-5CVDHm-51" style="edgeStyle=orthogonalEdgeStyle;rounded=0;orthogonalLoop=1;jettySize=auto;html=1;exitX=0;exitY=0.5;exitDx=0;exitDy=0;entryX=0.5;entryY=0;entryDx=0;entryDy=0;" edge="1" parent="1" source="8XqOl44Nm7k2h-5CVDHm-48" target="8XqOl44Nm7k2h-5CVDHm-50">
          <mxGeometry relative="1" as="geometry" />
        </mxCell>
        <mxCell id="8XqOl44Nm7k2h-5CVDHm-48" value="new = 4" style="rounded=1;whiteSpace=wrap;html=1;" vertex="1" parent="1">
          <mxGeometry x="480" y="1680" width="120" height="60" as="geometry" />
        </mxCell>
        <mxCell id="8XqOl44Nm7k2h-5CVDHm-50" value="index = 0" style="rounded=1;whiteSpace=wrap;html=1;" vertex="1" parent="1">
          <mxGeometry x="280" y="1840" width="120" height="60" as="geometry" />
        </mxCell>
      </root>
    </mxGraphModel>
  </diagram>
</mxfile>
